# xmcd
#
# Track frame offsets:
# 150
# 44442
# 94377
# 140000
# 167892
# 189257
# 205415
# 245182
# 274047
# 293992
# 310017
#
# Disc length: 4444 seconds
#
#
# Revision: 1
# Processed by: cddbd v1.5.1PL0 Copyright (c) Steve Scherf et al.
# Submitted via: FreeRIP 2.942 
#
DISCID=ac115a0b
DTITLE=Raul Di Blasio - Los Esenciales
DYEAR=1900
DGENRE=New Age
TTITLE0=Seleccion Especial de Julio Iglesias
TTITLE1=Seleccion Especial de Roberto Carlos
TTITLE2=Seleccion Especial de Raphael
TTITLE3=Adios Nonino
TTITLE4=Para Vivir
TTITLE5=Cancion Con Todos
TTITLE6=Seleccion De Temas de Perales
TTITLE7=Gracias A La Vida
TTITLE8=Solo Le Pido A Dios
TTITLE9=Era En Abril
TTITLE10=Unicornio
EXTD=
EXTT0=
EXTT1=
EXTT2=
EXTT3=
EXTT4=
EXTT5=
EXTT6=
EXTT7=
EXTT8=
EXTT9=
EXTT10=
PLAYORDER=
